<COLLADA xmlns="http://www.collada.org/2005/11/COLLADASchema" version="1.4.1">
  <asset>
    <contributor/>
    <created>2025-12-24T15:01:01.227504</created>
    <modified>2025-12-24T15:01:01.227504</modified>
    <unit name="meter" meter="1.0"/>
    <up_axis>Z_UP</up_axis>
  </asset>
  <library_effects>
    <effect id="effect_Mesh" name="effect_Mesh">
      <profile_COMMON>
        <technique sid="common">
          <phong>
            <emission>
              <color>0.0 0.0 0.0 1.0</color>
            </emission>
            <ambient>
              <color>0.0 0.0 0.0 1.0</color>
            </ambient>
            <diffuse>
              <color>0.6784313917160034 0.7098039388656616 0.7411764860153198 1.0</color>
            </diffuse>
            <specular>
              <color>1 1 1 1.0</color>
            </specular>
            <shininess>
              <float>0.0</float>
            </shininess>
            <reflective>
              <color>0.0 0.0 0.0 1.0</color>
            </reflective>
            <reflectivity>
              <float>0.0</float>
            </reflectivity>
            <transparent>
              <color>0.0 0.0 0.0 1.0</color>
            </transparent>
            <transparency>
              <float>1.0</float>
            </transparency>
          </phong>
        </technique>
        <extra>
          <technique profile="GOOGLEEARTH">
            <double_sided>0</double_sided>
          </technique>
        </extra>
      </profile_COMMON>
    </effect>
  </library_effects>
  <library_geometries>
    <geometry id="geometry0" name="Mesh">
      <mesh>
        <source id="cubeverts-array0">
          <float_array count="72" id="cubeverts-array0-array">-10 10 1 -10 -10 0 -10 10 0 -10 -10 1 20 -10 0 20 -10 1 20 25 1 20 25 0 5 25 0 5 25 1 5 10 0 5 10 1 2 28 0 23 28 1 23 28 0 2 28 1 23 -13 1 23 -13 0 -13 -13 0 -13 -13 1 -13 13 0 -13 13 1 2 13 0 2 13 1</float_array>
          <technique_common>
            <accessor count="24" source="#cubeverts-array0-array" stride="3">
              <param type="float" name="X"/>
              <param type="float" name="Y"/>
              <param type="float" name="Z"/>
            </accessor>
          </technique_common>
        </source>
        <source id="cubenormals-array0">
          <float_array count="144" id="cubenormals-array0-array">1 0 0 1 0 0 0 1 0 -0 1 0 -1 0 0 -1 0 0 0 -1 -0 -0 -1 0 1 0 0 1 0 0 0 -1 -0 -0 -1 0 0 1 0 -0 1 0 1 0 0 1 0 0 0 -1 -0 -0 -1 0 -1 0 0 -1 0 0 0 1 0 -0 1 0 -1 0 0 -1 0 0 0 0 1 0 0 1 0 0 1 0 0 1 0 0 1 0 0 1 0 0 1 0 0 1 0 0 1 0 0 1 0 0 1 0 0 1 0 0 -1 0 0 -1 0 0 -1 0 -0 -1 0 0 -1 0 -0 -1 0 0 -1 0 0 -1 0 0 -1 0 0 -1 0 0 -1 0 0 -1</float_array>
          <technique_common>
            <accessor count="48" source="#cubenormals-array0-array" stride="3">
              <param type="float" name="X"/>
              <param type="float" name="Y"/>
              <param type="float" name="Z"/>
            </accessor>
          </technique_common>
        </source>
        <vertices id="cubeverts-array0-vertices">
          <input semantic="POSITION" source="#cubeverts-array0"/>
        </vertices>
        <triangles count="48" material="ref_Mesh">
          <input offset="0" semantic="VERTEX" source="#cubeverts-array0-vertices"/>
          <input offset="1" semantic="NORMAL" source="#cubenormals-array0"/>
          <p>0 0 1 0 2 0 0 1 3 1 1 1 3 2 4 2 1 2 3 3 5 3 4 3 4 4 6 4 7 4 5 5 6 5 4 5 6 6 8 6 7 6 6 7 9 7 8 7 9 8 10 8 8 8 9 9 11 9 10 9 11 10 2 10 10 10 11 11 0 11 2 11 12 12 13 12 14 12 15 13 13 13 12 13 14 14 16 14 17 14 13 15 16 15 14 15 16 16 18 16 17 16 16 17 19 17 18 17 19 18 20 18 18 18 19 19 21 19 20 19 21 20 22 20 20 20 21 21 23 21 22 21 23 22 12 22 22 22 23 23 15 23 12 23 21 24 3 24 0 24 21 25 19 25 3 25 5 26 19 26 16 26 5 27 3 27 19 27 23 28 0 28 11 28 23 29 21 29 0 29 9 30 23 30 11 30 15 31 23 31 9 31 6 32 15 32 9 32 13 33 6 33 5 33 13 34 5 34 16 34 13 35 15 35 6 35 20 36 2 36 18 36 18 37 2 37 1 37 18 38 4 38 17 38 1 39 4 39 18 39 20 40 22 40 2 40 22 41 10 41 2 41 22 42 8 42 10 42 22 43 12 43 8 43 12 44 7 44 8 44 7 45 14 45 4 45 4 46 14 46 17 46 12 47 14 47 7 47</p>
        </triangles>
      </mesh>
    </geometry>
  </library_geometries>
  <library_materials>
    <material id="mat_Mesh" name="Mesh">
      <instance_effect url="#effect_Mesh"/>
    </material>
  </library_materials>
  <library_visual_scenes>
    <visual_scene id="myscene">
      <node id="node0" name="node0">
        <instance_geometry url="#geometry0">
          <bind_material>
            <technique_common>
              <instance_material symbol="ref_Mesh" target="#mat_Mesh"/>
            </technique_common>
          </bind_material>
        </instance_geometry>
      </node>
    </visual_scene>
  </library_visual_scenes>
  <scene>
    <instance_visual_scene url="#myscene"/>
  </scene>
</COLLADA>
